<?xml version="1.0" standalone="no"?>
<!DOCTYPE svg PUBLIC "-//W3C//DTD SVG 20010904//EN"
 "http://www.w3.org/TR/2001/REC-SVG-20010904/DTD/svg10.dtd">
<svg version="1.0" xmlns="http://www.w3.org/2000/svg"
 width="260.000000pt" height="260.000000pt" viewBox="0 0 260.000000 260.000000"
 preserveAspectRatio="xMidYMid meet">
<metadata>
Created by potrace 1.11, written by Peter Selinger 2001-2013
</metadata>
<g transform="translate(0.000000,260.000000) scale(0.100000,-0.100000)"
fill="#000000" stroke="none">
<path d="M2 2398 l3 -203 335 0 335 0 2 -858 c1 -472 4 -861 7 -864 3 -3 66
-5 140 -5 l134 1 34 -52 c117 -175 303 -309 533 -383 l100 -32 320 -1 320 0
95 28 c52 16 127 42 165 58 l70 30 3 206 2 207 -59 -35 c-130 -76 -255 -120
-401 -142 -46 -6 -233 -7 -260 0 -8 2 -33 7 -55 12 -48 9 -178 67 -203 90
-134 125 -197 230 -218 362 -3 21 -8 41 -10 45 -7 11 -6 249 1 278 3 14 8 41
11 60 10 58 51 157 90 215 106 161 279 244 507 243 186 0 327 -35 495 -124
l102 -53 0 203 0 203 -57 26 c-80 35 -202 73 -303 94 -101 21 -487 25 -555 5
-22 -6 -56 -14 -75 -17 -96 -17 -271 -89 -349 -144 -16 -12 -34 -21 -39 -21
-6 0 -9 68 -8 182 l1 183 340 0 340 0 3 203 2 202 -950 0 -950 0 2 -202z"/>
</g>
</svg>
